<?xml version="1.0" standalone="no"?>
<!DOCTYPE svg PUBLIC "-//W3C//DTD SVG 20010904//EN"
 "http://www.w3.org/TR/2001/REC-SVG-20010904/DTD/svg10.dtd">
<svg version="1.0" xmlns="http://www.w3.org/2000/svg"
 width="1024.000000pt" height="1024.000000pt" viewBox="0 0 1024.000000 1024.000000"
 preserveAspectRatio="xMidYMid meet">

<g transform="translate(0.000000,1024.000000) scale(0.100000,-0.100000)"
fill="#000000" stroke="none">
<path d="M4810 9783 c-742 -56 -1440 -275 -2056 -644 -373 -224 -767 -546
-1046 -855 -314 -348 -531 -663 -736 -1074 -290 -578 -433 -1097 -483 -1753
-15 -195 -7 -613 16 -817 136 -1238 749 -2360 1710 -3125 317 -253 635 -451
965 -600 675 -307 1436 -454 2153 -416 281 14 355 23 602 67 453 81 828 204
1236 405 280 138 509 280 760 470 912 694 1546 1725 1754 2852 93 507 99 1080
15 1593 -152 936 -600 1815 -1274 2503 -810 825 -1832 1304 -2965 1391 -123 9
-543 11 -651 3z m840 -122 c500 -64 872 -168 1318 -367 676 -301 1307 -808
1770 -1421 191 -254 320 -464 460 -753 272 -559 409 -1070 453 -1685 14 -202
6 -587 -16 -785 -86 -768 -375 -1525 -817 -2146 -450 -632 -1055 -1142 -1745
-1471 -527 -250 -1080 -392 -1693 -434 -611 -41 -1326 73 -1920 307 -603 238
-1081 553 -1546 1018 -385 386 -656 766 -883 1236 -316 656 -467 1361 -448
2090 19 713 171 1313 492 1945 230 452 504 825 877 1191 775 761 1726 1199
2813 1293 191 16 695 6 885 -18z"/>
<path d="M4865 9449 c-591 -40 -1210 -211 -1705 -471 -1214 -639 -2056 -1788
-2284 -3118 -56 -330 -76 -778 -47 -1090 94 -1022 529 -1957 1241 -2671 351
-352 701 -605 1135 -819 539 -265 1050 -402 1650 -441 651 -42 1352 77 1948
332 375 161 678 343 1011 609 582 465 1042 1093 1319 1800 126 321 220 697
264 1050 26 208 26 792 0 999 -174 1398 -962 2574 -2197 3282 -679 389 -1553
591 -2335 538z m490 -89 c1043 -70 1954 -476 2704 -1205 342 -332 628 -726
835 -1150 238 -484 366 -929 422 -1465 23 -220 15 -730 -15 -948 -98 -712
-360 -1365 -778 -1940 -403 -554 -963 -1022 -1568 -1313 -549 -263 -1116 -400
-1735 -416 -539 -14 -1075 75 -1577 262 -1377 514 -2392 1722 -2667 3175 -120
632 -88 1317 90 1935 204 704 583 1339 1111 1855 388 381 823 675 1301 879
582 249 1274 371 1877 331z"/>
<path d="M5079 8703 c-86 -126 -168 -222 -346 -406 -107 -110 -223 -237 -258
-282 -104 -132 -189 -290 -210 -387 -7 -32 -8 -32 -16 -9 -5 13 -23 102 -40
199 -16 97 -39 197 -50 221 -36 83 -90 117 -105 69 -3 -13 -41 -95 -84 -183
-42 -88 -81 -170 -86 -183 -9 -22 -9 -22 -64 19 -68 52 -166 99 -204 99 -32 0
-32 5 -3 -150 9 -47 23 -131 31 -188 9 -57 27 -131 40 -165 14 -33 24 -62 22
-64 -2 -2 -30 3 -62 12 -90 23 -227 37 -349 33 l-110 -3 2 -50 c3 -73 46 -202
92 -272 71 -111 189 -201 287 -219 48 -9 42 -21 -16 -33 -114 -24 -240 -7
-321 45 -49 30 -57 30 -65 -2 -17 -67 66 -251 154 -340 87 -89 223 -141 344
-132 26 1 48 2 48 2 0 -1 -12 -23 -26 -49 -22 -39 -24 -49 -13 -56 28 -18 59
-8 111 37 94 81 192 117 317 116 102 -1 192 -30 287 -94 63 -42 87 -52 131
-56 39 -3 53 -1 53 8 0 22 -50 101 -121 192 -154 197 -198 282 -199 384 l0 62
65 16 c35 9 80 16 100 16 l35 0 0 -47 c0 -128 51 -225 195 -373 87 -90 116
-127 129 -165 31 -87 35 -95 51 -95 24 0 35 41 24 90 -17 73 -49 122 -151 227
-115 118 -155 190 -165 296 l-6 67 34 0 c47 0 55 -8 63 -60 10 -63 68 -176
122 -238 79 -91 118 -56 45 41 -53 71 -80 128 -88 183 l-6 47 33 -19 c62 -35
137 -120 174 -196 50 -102 67 -175 73 -308 3 -63 10 -121 15 -127 12 -15 66
-17 87 -4 11 7 13 31 8 123 -9 144 -35 251 -97 398 -58 136 -62 179 -26 255
26 56 143 238 156 243 5 2 14 -7 21 -20 7 -13 36 -60 66 -105 101 -154 114
-213 67 -313 -84 -179 -112 -287 -121 -457 l-6 -122 25 -6 c15 -4 36 -5 49 -3
23 3 24 8 35 128 12 133 22 182 56 270 41 106 121 205 197 245 31 15 31 15 31
-9 0 -44 -40 -133 -90 -203 -28 -37 -50 -70 -50 -74 0 -4 7 -12 15 -19 13 -11
23 -5 64 37 62 64 107 144 128 229 10 38 23 72 28 76 6 4 25 8 43 8 31 0 32
-2 32 -38 0 -51 -26 -137 -58 -192 -14 -25 -69 -90 -122 -145 -54 -57 -105
-120 -118 -147 -29 -62 -38 -123 -22 -143 15 -18 39 -20 45 -2 43 123 48 131
160 247 68 69 123 136 139 168 33 64 56 152 56 211 l0 44 63 -6 c34 -4 79 -11
100 -17 37 -11 37 -11 37 -64 0 -108 -41 -190 -187 -374 -75 -96 -116 -159
-128 -199 -6 -22 -3 -23 42 -23 41 0 58 7 120 49 103 71 169 93 284 99 144 6
234 -23 337 -112 54 -46 90 -57 110 -33 8 9 4 24 -14 56 -13 24 -24 44 -24 45
0 0 22 -1 48 -2 176 -13 355 95 438 263 35 70 64 162 64 201 0 35 -22 34 -98
-4 -60 -29 -86 -36 -153 -40 -77 -4 -189 11 -189 26 0 4 26 15 58 25 163 52
290 202 341 405 28 107 27 120 -5 128 -53 14 -335 -4 -418 -25 -44 -12 -81
-19 -83 -17 -2 2 5 24 16 49 23 53 46 161 56 257 3 36 15 102 26 148 23 93 20
112 -13 112 -29 0 -153 -58 -193 -91 -69 -56 -64 -55 -77 -18 -6 19 -39 90
-73 159 -34 69 -70 146 -80 173 -21 55 -39 60 -78 19 -37 -39 -51 -86 -92
-305 -20 -105 -38 -193 -40 -195 -2 -2 -11 22 -20 54 -22 75 -64 159 -130 259
-69 103 -114 155 -303 350 -174 179 -277 299 -352 410 -28 41 -55 75 -60 75
-5 0 -24 -21 -41 -47z m118 -216 c40 -51 158 -181 263 -291 105 -109 222 -239
260 -290 153 -205 217 -415 160 -526 -22 -44 -74 -106 -99 -119 -14 -8 -16 0
-17 58 -1 77 -22 147 -68 223 -23 39 -38 81 -49 144 -26 143 -126 318 -171
301 -23 -9 -20 -37 10 -80 32 -48 69 -131 77 -175 l7 -34 -48 39 c-26 22 -92
74 -148 115 -55 42 -135 113 -177 159 l-77 82 -75 -80 c-41 -44 -120 -115
-177 -158 -57 -43 -124 -96 -150 -118 -30 -24 -48 -34 -48 -24 0 30 40 128 74
181 37 58 43 80 26 91 -46 28 -150 -142 -177 -288 -10 -57 -30 -113 -65 -182
-42 -86 -50 -111 -55 -177 -3 -43 -9 -78 -14 -78 -4 0 -28 23 -53 51 -81 90
-90 188 -31 345 59 158 135 259 398 535 192 202 337 365 337 382 0 19 20 -1
87 -86z m-8 -599 c37 -35 84 -77 106 -94 l40 -32 -65 -68 c-36 -38 -76 -82
-88 -99 l-21 -30 -1 60 c-2 122 -26 183 -60 150 -10 -10 -15 -45 -18 -110 -3
-52 -7 -95 -11 -95 -4 0 -15 13 -24 30 -10 16 -45 57 -77 91 -33 34 -60 65
-60 69 0 4 24 26 53 48 28 23 74 64 102 91 27 28 51 51 54 51 2 0 34 -28 70
-62z m-1074 -122 c42 -247 111 -415 211 -518 l44 -46 -72 -17 c-126 -28 -168
-29 -213 -3 -52 31 -111 117 -130 193 -20 81 -19 186 4 277 19 73 121 293 127
273 2 -5 15 -77 29 -159z m2106 40 c80 -168 97 -318 54 -463 -29 -96 -118
-182 -188 -183 -15 0 -60 7 -100 15 -40 9 -83 18 -96 21 -24 5 -23 6 16 47 77
79 132 183 174 327 15 49 69 324 69 348 0 2 5 0 11 -4 6 -4 33 -52 60 -108z
m-2408 -174 c25 -34 30 -52 38 -143 9 -107 33 -196 69 -254 29 -47 25 -50 -26
-14 -83 57 -131 161 -159 344 -8 55 -15 111 -15 123 l0 24 33 -20 c17 -11 45
-38 60 -60z m1054 60 c39 -31 114 -126 149 -188 26 -46 34 -73 34 -109 l0 -49
-72 79 c-40 43 -86 96 -103 117 -16 21 -37 38 -46 38 -27 0 -117 -108 -156
-188 -31 -62 -37 -86 -41 -158 -4 -82 -5 -84 -23 -68 -10 9 -26 36 -35 60 -38
100 6 242 109 352 52 55 143 132 155 132 4 0 17 -8 29 -18z m601 -31 c171
-142 242 -296 198 -429 -9 -27 -25 -57 -35 -66 -17 -16 -18 -13 -24 70 -4 72
-11 98 -40 157 -41 82 -129 187 -157 187 -11 0 -30 -15 -42 -34 -33 -48 -175
-195 -182 -188 -23 23 13 129 71 207 51 68 124 145 138 145 8 0 40 -22 73 -49z
m1052 34 c0 -44 -35 -238 -51 -290 -26 -77 -80 -156 -129 -189 -22 -14 -42
-26 -45 -26 -2 0 9 21 26 48 38 61 56 123 68 244 11 112 29 157 80 198 40 34
51 37 51 15z m-1623 -297 c72 -75 103 -122 103 -156 0 -11 -21 -50 -46 -87
-26 -37 -57 -93 -69 -124 -23 -54 -24 -55 -30 -28 -15 56 2 147 39 221 40 79
44 101 20 110 -42 16 -120 -121 -131 -231 -3 -29 -9 -53 -14 -53 -17 0 -48 53
-59 101 -16 64 -6 139 25 202 27 52 73 117 84 117 4 0 39 -33 78 -72z m557 37
c81 -106 103 -238 55 -330 -34 -67 -45 -67 -53 3 -11 100 -92 241 -130 226
-26 -10 -27 -36 -2 -74 52 -79 75 -173 61 -247 l-7 -38 -28 61 c-15 34 -46 88
-67 120 -52 78 -56 90 -37 127 20 38 154 185 170 186 7 1 24 -15 38 -34z
m-1934 -205 c36 -6 95 -19 132 -30 l67 -20 -45 -42 c-57 -52 -86 -107 -88
-167 -1 -42 1 -46 23 -46 20 0 27 9 42 55 22 67 79 125 133 136 30 5 43 2 74
-20 59 -42 178 -153 170 -161 -3 -3 -46 -18 -95 -32 -70 -20 -112 -26 -208
-27 -115 -1 -123 0 -186 30 -39 19 -85 52 -116 82 -53 55 -110 158 -120 217
l-6 35 79 0 c44 0 108 -5 144 -10z m3416 -22 c-13 -70 -75 -175 -136 -231 -87
-81 -146 -102 -285 -101 -90 0 -129 5 -212 28 -57 16 -103 32 -102 35 1 12
187 166 211 175 62 22 147 -42 175 -131 19 -59 34 -73 59 -52 32 27 -16 151
-82 208 -20 18 -33 36 -28 41 12 11 99 38 159 49 28 5 94 9 149 10 l99 1 -7
-32z m-2396 -137 c30 -11 68 -31 84 -44 l29 -24 -129 5 c-93 3 -152 0 -212
-12 -94 -18 -142 -14 -198 18 -65 36 -56 51 33 54 43 1 103 9 133 17 75 19
191 13 260 -14z m1420 14 c36 -8 100 -14 143 -15 75 0 77 -1 67 -20 -12 -22
-69 -54 -116 -64 -18 -4 -70 0 -118 9 -98 18 -250 22 -313 7 -24 -5 -43 -8
-43 -6 0 12 80 60 133 80 73 27 152 30 247 9z m-1813 -305 c12 -78 55 -178
109 -253 19 -27 33 -51 30 -54 -2 -3 -36 0 -74 6 -41 6 -120 8 -194 4 -115 -5
-129 -4 -170 16 -30 14 -52 34 -67 61 -39 70 -27 173 23 199 17 10 305 89 327
91 3 0 10 -32 16 -70z m2078 41 c193 -51 218 -62 237 -101 50 -100 -11 -214
-129 -240 -21 -5 -75 -4 -127 2 -67 8 -111 8 -169 -1 -44 -7 -81 -10 -84 -8
-2 3 12 27 31 55 52 72 94 170 107 251 7 39 15 71 18 71 3 0 56 -13 116 -29z
m-2522 -277 c9 -18 28 -46 43 -63 15 -18 23 -35 19 -39 -4 -4 -55 -7 -113 -7
-127 0 -172 16 -253 91 -49 47 -107 130 -96 140 2 3 34 0 71 -6 74 -12 156 -2
246 28 l55 19 6 -66 c3 -36 13 -80 22 -97z m2946 135 c74 -22 191 -29 254 -16
l39 8 -28 -51 c-35 -65 -100 -125 -172 -158 -51 -24 -69 -27 -164 -27 -58 0
-110 3 -114 7 -4 4 5 20 20 35 48 47 70 101 70 171 1 46 4 61 14 57 7 -2 44
-14 81 -26z"/>
<path d="M5075 8366 c-27 -19 -24 -74 4 -98 13 -10 32 -18 42 -18 28 0 59 36
59 68 0 53 -61 80 -105 48z"/>
<path d="M4951 8216 c-18 -22 -6 -63 21 -72 16 -5 27 -1 40 16 16 20 17 25 5
44 -18 26 -50 32 -66 12z"/>
<path d="M5226 8214 c-20 -20 -20 -38 0 -59 20 -20 42 -16 60 10 12 18 11 24
-2 43 -18 26 -37 28 -58 6z"/>
<path d="M4840 8095 c-16 -19 -5 -61 17 -67 25 -7 42 1 53 23 23 43 -39 82
-70 44z"/>
<path d="M5336 8094 c-21 -20 -20 -30 4 -54 24 -24 34 -25 54 -4 19 18 20 28
6 55 -13 23 -43 25 -64 3z"/>
<path d="M3937 6682 c-22 -25 -21 -75 1 -95 25 -22 75 -21 95 1 22 25 21 75
-1 95 -25 22 -75 21 -95 -1z"/>
<path d="M6200 6680 c-11 -11 -20 -27 -20 -36 0 -19 19 -56 34 -66 21 -14 66
-8 86 12 41 41 10 110 -50 110 -17 0 -39 -9 -50 -20z"/>
<path d="M3492 7484 c-24 -17 -29 -53 -10 -72 19 -19 66 -15 78 7 14 28 13 38
-10 61 -24 24 -29 24 -58 4z"/>
<path d="M6690 7482 c-47 -38 5 -111 56 -77 31 20 32 59 2 79 -28 20 -31 20
-58 -2z"/>
<path d="M2886 6358 c-42 -23 0 -389 70 -608 13 -41 24 -80 24 -86 0 -6 -37 2
-86 18 -93 32 -184 47 -184 31 0 -18 102 -296 136 -371 78 -170 208 -324 345
-408 35 -21 107 -53 159 -70 94 -31 96 -33 187 -125 50 -52 91 -95 89 -96 -1
-2 -58 4 -127 12 -195 23 -297 57 -425 142 -29 19 -58 32 -63 28 -45 -27 52
-278 166 -430 98 -132 233 -245 350 -296 70 -30 189 -59 245 -59 26 0 48 -3
48 -7 0 -3 -18 -29 -40 -58 -22 -28 -49 -73 -61 -100 -21 -47 -21 -49 -3 -62
10 -7 24 -13 32 -13 8 0 87 -31 177 -69 377 -161 566 -180 780 -77 195 93 332
270 390 501 l22 90 12 -45 c7 -25 21 -74 33 -110 81 -252 258 -422 501 -480
182 -44 328 -18 637 115 80 35 163 68 185 75 22 7 44 16 48 20 13 12 -24 86
-77 158 l-46 62 53 0 c119 0 272 58 399 152 154 113 301 320 357 502 37 120
22 162 -42 114 -119 -90 -265 -138 -478 -156 l-86 -8 86 93 c80 87 90 94 153
113 157 48 309 150 407 273 70 87 150 246 215 428 31 86 56 160 56 164 0 14
-104 -2 -184 -29 -43 -15 -80 -25 -82 -23 -3 2 12 62 31 133 43 157 77 383 73
484 -3 71 -4 75 -27 78 -14 2 -71 -6 -129 -18 -57 -12 -154 -25 -215 -29 -110
-6 -110 -6 -120 -34 -7 -21 -5 -34 7 -52 16 -24 22 -25 109 -25 86 0 164 9
230 25 l28 7 -6 -63 c-25 -253 -125 -570 -261 -829 -109 -207 -241 -384 -415
-559 -238 -238 -556 -456 -794 -542 -83 -30 -99 -33 -215 -33 -108 -1 -131 2
-173 21 -55 26 -146 108 -172 157 l-18 34 34 40 c19 22 75 87 125 145 122 139
172 215 210 317 l33 85 91 3 91 3 -3 47 -3 47 -124 3 c-79 2 -128 -1 -136 -8
-8 -6 -18 -33 -24 -59 -13 -60 -47 -141 -61 -141 -18 0 -58 73 -76 137 -16 58
-20 63 -50 69 -18 3 -42 3 -54 -1 -19 -6 -20 -11 -14 -53 11 -74 42 -147 89
-210 45 -60 46 -63 5 -112 l-20 -25 -25 30 c-44 52 -84 129 -114 221 -25 78
-32 89 -52 89 -20 0 -26 -10 -45 -71 -23 -77 -80 -191 -119 -238 -26 -33 -37
-29 -67 22 -18 29 -17 30 13 68 54 66 93 162 94 224 0 50 -2 55 -24 58 -52 8
-67 -4 -85 -70 -18 -65 -58 -138 -76 -138 -13 0 -43 69 -60 138 -7 31 -20 56
-30 62 -20 11 -218 14 -244 4 -11 -4 -16 -19 -16 -50 l0 -44 89 0 89 0 18 -52
c40 -125 99 -215 248 -383 126 -141 133 -153 117 -193 -19 -45 -99 -119 -161
-150 -51 -25 -64 -27 -175 -27 -109 1 -129 4 -215 33 -236 82 -559 300 -801
541 -190 191 -325 381 -444 626 -89 183 -136 306 -180 479 -31 123 -64 330
-53 341 2 3 39 -2 82 -10 107 -21 259 -20 280 1 20 19 20 43 2 70 -13 18 -29
22 -128 27 -62 4 -142 14 -178 23 -111 26 -147 31 -164 22z m79 -816 c33 -16
66 -37 74 -46 8 -9 38 -67 68 -128 55 -115 133 -249 191 -330 19 -27 31 -48
28 -48 -3 0 -25 9 -49 20 -107 51 -226 174 -296 309 -37 71 -101 225 -101 243
0 14 24 8 85 -20z m4369 -44 c-81 -231 -216 -408 -368 -485 -58 -30 -58 -28
23 97 34 52 96 163 137 247 l75 152 52 24 c111 52 112 51 81 -35z m-2204 -717
c0 -5 20 -40 45 -77 25 -36 45 -69 45 -71 0 -9 -93 -118 -101 -118 -10 0 -99
103 -99 115 0 5 21 43 48 84 43 70 62 90 62 67z m-1820 -207 c52 -13 156 -30
231 -38 197 -22 244 -40 444 -174 l170 -114 -105 6 c-58 2 -134 12 -170 22
-88 22 -216 83 -268 127 -49 41 -45 39 -66 31 -53 -20 30 -100 179 -174 55
-27 129 -57 164 -66 58 -16 62 -18 40 -27 -13 -6 -71 -10 -129 -10 -117 0
-188 20 -297 84 -75 45 -195 165 -261 261 -64 94 -73 115 -46 104 10 -4 62
-19 114 -32z m3724 -11 c-43 -75 -106 -152 -180 -223 -137 -131 -257 -183
-414 -182 -52 0 -108 4 -124 9 -26 8 -21 11 70 41 150 49 334 166 322 203 -11
33 -36 32 -79 -3 -59 -49 -170 -103 -260 -127 -82 -23 -247 -43 -266 -32 -16
8 298 216 364 241 64 24 131 37 288 54 72 9 166 26 210 39 44 14 84 25 88 26
5 0 -4 -20 -19 -46z m-2079 -482 c-34 -103 -98 -175 -179 -201 -47 -15 -157
-9 -206 12 l-35 16 70 31 c129 59 173 84 267 152 101 72 110 71 83 -10z m390
25 c91 -71 193 -130 277 -162 38 -14 68 -30 68 -34 0 -15 -100 -40 -159 -40
-104 1 -177 54 -229 170 -32 70 -47 120 -35 120 3 0 39 -24 78 -54z m-895 15
c36 -10 105 -24 153 -31 48 -6 87 -14 87 -17 0 -10 -131 -64 -205 -85 -68 -18
-109 -22 -265 -23 -176 -2 -185 -3 -188 -22 -5 -35 40 -46 210 -51 l158 -4 84
-43 c54 -28 103 -46 140 -50 31 -4 58 -11 61 -15 5 -9 -69 -42 -130 -59 -73
-20 -224 -14 -316 13 -95 28 -362 139 -366 153 -5 14 45 74 101 122 132 114
317 158 476 112z m1589 4 c83 -20 171 -67 238 -128 73 -67 100 -106 82 -118
-42 -26 -311 -133 -376 -150 -86 -21 -234 -26 -298 -8 -55 15 -135 50 -135 59
0 4 24 10 53 13 32 4 86 23 142 51 l90 45 120 -2 c171 -1 266 23 250 64 -4 11
-43 14 -193 15 -210 0 -285 14 -403 75 l-64 33 100 17 c55 9 123 23 150 32 64
20 163 21 244 2z"/>
<path d="M4639 5900 c-61 -32 -87 -92 -69 -160 14 -52 46 -75 146 -106 46 -14
91 -32 99 -40 31 -31 10 -77 -41 -90 -37 -9 -86 3 -137 35 l-46 30 -26 -34
-26 -34 40 -26 c45 -30 120 -55 165 -55 121 0 202 86 175 185 -13 45 -58 78
-144 105 -91 29 -115 45 -115 75 0 56 85 72 163 30 l46 -24 21 29 c11 15 20
33 20 40 0 6 -24 22 -52 35 -67 31 -165 34 -219 5z"/>
<path d="M5843 5908 c-5 -7 -34 -84 -64 -170 -29 -87 -56 -158 -59 -158 -3 0
-29 74 -58 165 l-53 165 -49 0 c-28 0 -50 -2 -50 -5 0 -3 37 -111 82 -240 l82
-235 46 0 46 0 42 128 c23 70 51 145 60 167 l19 40 38 -115 c76 -231 70 -220
120 -220 32 0 45 5 50 18 3 9 37 105 75 212 37 107 73 208 79 223 l11 28 -52
-3 -51 -3 -57 -170 -57 -170 -53 165 c-30 91 -58 171 -63 178 -5 6 -24 12 -42
12 -18 0 -37 -6 -42 -12z"/>
<path d="M3582 5738 c3 -144 7 -179 22 -208 29 -56 56 -79 110 -95 119 -36
227 1 267 89 16 35 19 67 19 214 l0 172 -45 0 -45 0 0 -162 c0 -144 -2 -167
-20 -195 -39 -65 -151 -65 -191 1 -17 27 -19 51 -19 194 l0 162 -51 0 -51 0 4
-172z"/>
<path d="M4090 5870 l0 -40 74 0 c58 0 75 -3 80 -16 3 -9 6 -99 6 -200 l0
-184 45 0 45 0 0 200 0 200 74 0 74 0 4 40 4 40 -203 0 -203 0 0 -40z"/>
<path d="M5040 5670 l0 -240 45 0 45 0 0 80 0 80 55 0 55 0 56 -80 56 -80 54
0 55 0 -47 68 c-26 37 -54 75 -62 85 -9 9 -13 18 -11 20 2 2 17 11 32 21 96
60 88 217 -13 268 -28 15 -62 18 -177 18 l-143 0 0 -240z m285 135 c24 -24 31
-57 19 -90 -12 -29 -60 -45 -139 -45 l-75 0 0 80 0 80 85 0 c78 0 88 -2 110
-25z"/>
<path d="M6350 5670 l0 -240 45 0 45 0 0 80 0 81 57 -3 57 -3 55 -77 54 -78
54 0 c38 0 52 3 47 12 -4 6 -31 45 -61 86 l-54 75 28 17 c53 32 67 57 71 123
3 52 0 67 -20 96 -42 61 -74 71 -235 71 l-143 0 0 -240z m270 145 c32 -17 46
-51 36 -90 -10 -38 -54 -55 -141 -55 l-75 0 0 80 0 80 75 0 c48 0 87 -6 105
-15z"/>
<path d="M1558 5589 c-29 -16 -23 -67 8 -81 32 -15 58 -1 62 34 3 26 -20 58
-41 58 -7 0 -20 -5 -29 -11z"/>
<path d="M8616 5578 c-21 -29 -20 -41 2 -61 24 -22 45 -21 65 1 22 24 21 45
-1 65 -25 23 -48 21 -66 -5z"/>
<path d="M1544 5376 c-39 -17 -64 -52 -64 -89 0 -115 151 -149 195 -43 17 41
9 78 -23 109 -35 33 -69 40 -108 23z"/>
<path d="M8620 5379 c-59 -24 -84 -82 -60 -140 23 -54 101 -76 149 -43 65 46
57 145 -14 179 -38 17 -41 17 -75 4z"/>
<path d="M1282 5318 c-28 -28 -7 -78 33 -78 27 0 45 18 45 45 0 27 -18 45 -45
45 -12 0 -26 -5 -33 -12z"/>
<path d="M1817 5310 c-28 -40 7 -85 55 -72 22 5 35 49 21 71 -16 25 -59 26
-76 1z"/>
<path d="M8347 5309 c-30 -42 12 -92 59 -70 27 12 33 58 12 79 -19 19 -55 14
-71 -9z"/>
<path d="M8879 5309 c-14 -27 1 -64 30 -72 44 -11 81 49 49 81 -20 20 -66 14
-79 -9z"/>
<path d="M3678 5093 c-35 -5 -35 -20 1 -91 43 -85 108 -166 217 -272 211 -203
466 -359 679 -414 74 -20 177 -20 239 -2 86 26 85 29 -1 120 -43 44 -126 140
-184 211 -153 189 -246 268 -406 349 -154 77 -397 121 -545 99z m269 -132 c8
-4 30 -54 48 -109 28 -88 30 -100 15 -92 -24 13 -146 147 -173 191 l-21 32 58
-7 c32 -3 65 -10 73 -15z m234 -76 c81 -41 166 -105 240 -182 88 -91 243 -287
231 -291 -18 -6 -165 48 -232 85 -92 51 -192 126 -245 185 -46 52 -108 167
-120 225 l-7 33 39 -14 c22 -8 64 -26 94 -41z"/>
<path d="M6350 5089 c-47 -5 -124 -20 -171 -33 -231 -66 -367 -164 -568 -411
-58 -71 -141 -164 -185 -207 -48 -47 -75 -81 -71 -88 4 -7 26 -21 49 -31 64
-29 193 -26 298 7 285 90 662 370 814 605 58 89 80 137 68 148 -15 15 -141 20
-234 10z m60 -121 c0 -19 -120 -158 -165 -193 -31 -23 -37 -25 -30 -9 4 10 19
55 32 99 13 44 28 84 32 88 23 23 131 34 131 15z m-232 -75 c-5 -21 -26 -68
-45 -106 -71 -135 -277 -293 -460 -353 -46 -15 -86 -24 -89 -21 -8 7 188 247
258 317 67 65 150 123 242 166 96 45 107 45 94 -3z"/>
<path d="M1563 5057 c-25 -11 -31 -55 -11 -75 16 -16 53 -15 68 2 30 37 -14
94 -57 73z"/>
<path d="M8620 5050 c-23 -23 -24 -33 -10 -61 21 -39 90 -16 90 30 0 14 -37
51 -50 51 -5 0 -19 -9 -30 -20z"/>
<path d="M5065 3861 c-51 -98 -133 -195 -226 -267 -33 -25 -59 -49 -59 -53 0
-4 47 -54 104 -111 58 -56 131 -139 162 -184 32 -44 61 -85 65 -89 4 -5 39 36
79 90 40 54 117 141 172 194 54 53 98 99 98 102 0 3 -33 31 -72 61 -40 30 -91
76 -113 102 -41 50 -130 192 -140 225 -4 10 -10 19 -15 19 -5 0 -30 -40 -55
-89z m79 -152 c10 -17 48 -62 83 -100 l65 -68 -82 -93 c-45 -51 -85 -93 -89
-93 -4 0 -46 41 -94 91 l-86 91 43 42 c24 23 63 69 87 101 24 33 46 59 49 60
3 0 14 -14 24 -31z"/>
<path d="M2733 3127 c-78 -116 -150 -230 -159 -252 -24 -58 -23 -159 3 -217
66 -147 274 -242 422 -193 81 27 136 88 280 313 72 112 131 207 131 210 0 4
-26 24 -57 44 l-57 37 -51 -77 c-27 -42 -83 -129 -124 -192 -118 -184 -156
-215 -247 -208 -69 6 -129 45 -155 101 -38 84 -28 111 140 361 76 113 130 204
127 212 -5 13 -93 74 -105 74 -4 0 -70 -96 -148 -213z"/>
<path d="M7173 3159 c-23 -4 -56 -15 -75 -25 -62 -31 -318 -188 -318 -195 0
-7 367 -630 378 -641 6 -6 100 46 119 66 3 3 -22 50 -56 106 -34 55 -61 106
-61 113 0 7 29 28 63 47 l62 36 139 -63 c76 -35 143 -63 150 -63 13 0 129 81
123 86 -2 2 -64 31 -138 65 -74 33 -138 64 -142 68 -4 5 1 24 13 43 27 46 36
126 21 180 -35 126 -153 200 -278 177z m81 -144 c67 -32 88 -127 40 -184 -22
-27 -184 -131 -203 -131 -7 0 -121 191 -121 202 0 8 150 105 180 117 36 14 68
13 104 -4z"/>
<path d="M3503 2878 c-12 -29 -19 -56 -17 -59 2 -4 49 -23 104 -44 55 -21 103
-42 106 -46 4 -7 -130 -360 -212 -557 l-13 -33 45 -20 c96 -41 77 -66 208 264
l117 295 102 -40 c56 -22 107 -42 112 -44 13 -5 57 113 46 121 -5 3 -85 34
-177 69 -93 35 -215 83 -272 105 -56 23 -108 41 -116 41 -7 0 -22 -24 -33 -52z"/>
<path d="M6619 2865 c-30 -6 -61 -15 -67 -19 -8 -5 -12 -57 -13 -174 -1 -92
-4 -221 -8 -286 l-6 -119 -157 236 -157 235 -58 -17 c-46 -13 -59 -22 -65 -42
-4 -13 -12 -134 -18 -269 -6 -135 -14 -248 -19 -253 -4 -4 -32 32 -63 80 -30
49 -97 155 -148 236 -64 102 -97 146 -107 143 -7 -3 -39 -13 -69 -22 -44 -13
-54 -19 -49 -32 16 -43 430 -652 442 -652 8 0 39 7 67 15 l53 15 13 252 c7
138 15 262 19 275 5 20 27 -7 146 -183 190 -280 160 -251 231 -227 l59 20 6
50 c9 73 32 650 28 703 l-4 46 -56 -11z"/>
<path d="M4312 2645 c-87 -38 -129 -96 -139 -190 -11 -107 36 -164 211 -252
48 -24 99 -56 112 -70 30 -33 31 -74 1 -108 -53 -63 -187 -34 -285 61 l-55 53
-43 -37 c-24 -20 -44 -42 -44 -49 0 -28 92 -105 167 -141 95 -45 213 -56 288
-28 98 38 161 158 135 258 -16 59 -85 123 -193 176 -121 60 -147 84 -147 132
0 107 149 109 278 3 l44 -36 39 39 c21 21 39 46 39 55 0 16 -42 55 -101 92
-83 51 -237 72 -307 42z"/>
<path d="M4937 2573 c-2 -4 -6 -177 -8 -383 l-4 -375 73 -3 72 -3 0 136 0 135
78 0 79 0 91 -130 92 -130 58 1 c116 2 116 -3 8 144 -53 71 -96 133 -96 137 0
3 9 10 21 13 33 11 89 65 111 108 64 125 10 275 -120 334 -30 14 -77 18 -243
21 -114 2 -209 0 -212 -5z m410 -149 c15 -11 34 -38 41 -60 11 -33 11 -45 -4
-82 -24 -64 -67 -81 -206 -82 l-108 0 0 126 0 126 124 -4 c108 -3 128 -6 153
-24z"/>
</g>
</svg>
